<svg width="223" height="13" viewBox="0 0 223 13" fill="none" xmlns="http://www.w3.org/2000/svg">
<path d="M5.06796 10.178C4.35862 10.178 3.69596 10.052 3.07996 9.79999C2.47329 9.53865 1.93662 9.17932 1.46996 8.72199C1.00329 8.25532 0.63929 7.71865 0.377957 7.11199C0.125957 6.49599 -4.29153e-05 5.83332 -4.29153e-05 5.12399C-4.29153e-05 4.41465 0.125957 3.75665 0.377957 3.14999C0.63929 2.53399 1.00329 1.99265 1.46996 1.52599C1.93662 1.05932 2.47329 0.699987 3.07996 0.447987C3.69596 0.186653 4.35862 0.0559866 5.06796 0.0559866C5.76796 0.0559866 6.42596 0.186653 7.04196 0.447987C7.65796 0.699987 8.19462 1.05932 8.65196 1.52599C9.10929 1.99265 9.46862 2.53399 9.72996 3.14999C9.99129 3.75665 10.122 4.41465 10.122 5.12399C10.122 5.83332 9.99129 6.49599 9.72996 7.11199C9.46862 7.71865 9.10929 8.25532 8.65196 8.72199C8.19462 9.17932 7.65796 9.53865 7.04196 9.79999C6.42596 10.052 5.76796 10.178 5.06796 10.178ZM5.03996 7.89599C4.53596 7.89599 4.08796 7.77932 3.69596 7.54599C3.30396 7.31265 2.99596 6.99065 2.77196 6.57999C2.54796 6.15999 2.43596 5.67465 2.43596 5.12399C2.43596 4.57332 2.54796 4.09265 2.77196 3.68199C2.99596 3.26199 3.29929 2.93532 3.68196 2.70199C4.07396 2.46865 4.52196 2.35199 5.02596 2.35199C5.48329 2.35199 5.91262 2.47332 6.31396 2.71599C6.72462 2.95865 7.02796 3.27132 7.22396 3.65399L7.40596 4.03199L6.55196 4.36799L6.36996 4.07399C6.24862 3.84065 6.06196 3.65399 5.80996 3.51399C5.55796 3.36465 5.29662 3.28999 5.02596 3.28999C4.54996 3.28999 4.15796 3.46265 3.84996 3.80799C3.55129 4.14399 3.40196 4.58265 3.40196 5.12399C3.40196 5.66532 3.55596 6.10865 3.86396 6.45399C4.17196 6.78999 4.56396 6.95799 5.03996 6.95799C5.31996 6.95799 5.58129 6.87865 5.82396 6.71999C6.07596 6.55199 6.27196 6.33732 6.41196 6.07599L6.55196 5.79599L7.44796 6.13199L7.27996 6.48199C7.06529 6.90199 6.75262 7.24265 6.34196 7.50399C5.93129 7.76532 5.49729 7.89599 5.03996 7.89599ZM5.06796 9.26799C5.85196 9.26799 6.54729 9.09065 7.15396 8.73599C7.76996 8.38132 8.25062 7.89132 8.59596 7.26599C8.95062 6.64065 9.12796 5.92665 9.12796 5.12399C9.12796 4.31199 8.95062 3.59332 8.59596 2.96799C8.25062 2.34265 7.76996 1.85265 7.15396 1.49799C6.54729 1.14332 5.85196 0.965987 5.06796 0.965987C4.28396 0.965987 3.58396 1.14332 2.96796 1.49799C2.35196 1.85265 1.86662 2.34265 1.51196 2.96799C1.16662 3.59332 0.993957 4.31199 0.993957 5.12399C0.993957 5.92665 1.16662 6.64065 1.51196 7.26599C1.86662 7.89132 2.35196 8.38132 2.96796 8.73599C3.58396 9.09065 4.28396 9.26799 5.06796 9.26799ZM15.029 10.024V9.04399C15.029 8.73599 15.0896 8.43265 15.211 8.13399C15.3416 7.82599 15.5236 7.52265 15.757 7.22399C15.9996 6.92532 16.2936 6.64532 16.639 6.38399L18.669 4.85799C18.9116 4.68999 19.1216 4.49865 19.299 4.28399C19.4856 4.05999 19.6303 3.83132 19.733 3.59799C19.8356 3.35532 19.887 3.12199 19.887 2.89799C19.887 2.57132 19.8076 2.27732 19.649 2.01599C19.4903 1.74532 19.2663 1.53065 18.977 1.37199C18.6876 1.21332 18.347 1.13399 17.955 1.13399C17.5723 1.13399 17.2363 1.20865 16.947 1.35799C16.6576 1.49799 16.4196 1.68932 16.233 1.93199C16.0463 2.16532 15.911 2.41732 15.827 2.68799L14.623 2.44999C14.735 2.02999 14.9356 1.63799 15.225 1.27399C15.5236 0.909986 15.9016 0.615986 16.359 0.391986C16.8163 0.167987 17.325 0.0559866 17.885 0.0559866C18.5383 0.0559866 19.103 0.181986 19.579 0.433986C20.055 0.676653 20.4236 1.01265 20.685 1.44199C20.9556 1.86199 21.091 2.34265 21.091 2.88399C21.091 3.39732 20.951 3.88265 20.671 4.33999C20.391 4.79732 19.985 5.24065 19.453 5.66999L17.535 7.12599C17.1616 7.40599 16.8723 7.69999 16.667 8.00799C16.471 8.31599 16.359 8.63799 16.331 8.97399H21.231V10.024H15.029ZM26.5313 10.192C25.7846 10.192 25.1219 9.97732 24.5433 9.54799C23.9646 9.10932 23.5119 8.51199 23.1853 7.75599C22.8586 6.99065 22.6953 6.11332 22.6953 5.12399C22.6953 4.13465 22.8586 3.26199 23.1853 2.50599C23.5119 1.74065 23.9599 1.14332 24.5293 0.713987C25.1079 0.27532 25.7753 0.0559866 26.5313 0.0559866C27.2873 0.0559866 27.9499 0.27532 28.5193 0.713987C29.0979 1.14332 29.5506 1.74065 29.8773 2.50599C30.2133 3.26199 30.3813 4.13465 30.3813 5.12399C30.3813 6.11332 30.2179 6.99065 29.8913 7.75599C29.5646 8.51199 29.1119 9.10932 28.5333 9.54799C27.9546 9.97732 27.2873 10.192 26.5313 10.192ZM26.5313 9.12799C27.0539 9.12799 27.5159 8.95532 27.9173 8.60999C28.3279 8.26465 28.6453 7.79332 28.8693 7.19599C29.1026 6.59865 29.2193 5.90799 29.2193 5.12399C29.2193 4.33999 29.1026 3.64932 28.8693 3.05199C28.6453 2.44532 28.3279 1.97399 27.9173 1.63799C27.5159 1.29265 27.0539 1.11999 26.5313 1.11999C26.0086 1.11999 25.5466 1.29265 25.1453 1.63799C24.7439 1.97399 24.4266 2.44532 24.1933 3.05199C23.9693 3.64932 23.8573 4.33999 23.8573 5.12399C23.8573 5.90799 23.9693 6.59865 24.1933 7.19599C24.4266 7.79332 24.7439 8.26465 25.1453 8.60999C25.5559 8.95532 26.0179 9.12799 26.5313 9.12799ZM31.818 10.024V9.04399C31.818 8.73599 31.8787 8.43265 32 8.13399C32.1307 7.82599 32.3127 7.52265 32.546 7.22399C32.7887 6.92532 33.0827 6.64532 33.428 6.38399L35.458 4.85799C35.7007 4.68999 35.9107 4.49865 36.088 4.28399C36.2747 4.05999 36.4194 3.83132 36.522 3.59799C36.6247 3.35532 36.676 3.12199 36.676 2.89799C36.676 2.57132 36.5967 2.27732 36.438 2.01599C36.2794 1.74532 36.0554 1.53065 35.766 1.37199C35.4767 1.21332 35.136 1.13399 34.744 1.13399C34.3614 1.13399 34.0254 1.20865 33.736 1.35799C33.4467 1.49799 33.2087 1.68932 33.022 1.93199C32.8354 2.16532 32.7 2.41732 32.616 2.68799L31.412 2.44999C31.524 2.02999 31.7247 1.63799 32.014 1.27399C32.3127 0.909986 32.6907 0.615986 33.148 0.391986C33.6054 0.167987 34.114 0.0559866 34.674 0.0559866C35.3274 0.0559866 35.892 0.181986 36.368 0.433986C36.844 0.676653 37.2127 1.01265 37.474 1.44199C37.7447 1.86199 37.88 2.34265 37.88 2.88399C37.88 3.39732 37.74 3.88265 37.46 4.33999C37.18 4.79732 36.774 5.24065 36.242 5.66999L34.324 7.12599C33.9507 7.40599 33.6614 7.69999 33.456 8.00799C33.26 8.31599 33.148 8.63799 33.12 8.97399H38.02V10.024H31.818ZM42.6063 10.192C42.1303 10.192 41.6963 10.122 41.3043 9.98199C40.9217 9.83265 40.5903 9.64132 40.3103 9.40799C40.0397 9.17465 39.825 8.92732 39.6663 8.66599L40.6463 8.11999C40.749 8.25065 40.875 8.39999 41.0243 8.56799C41.183 8.72665 41.3837 8.86199 41.6263 8.97399C41.869 9.08599 42.1677 9.14199 42.5223 9.14199C43.157 9.14199 43.6657 8.95999 44.0483 8.59599C44.431 8.23199 44.6223 7.77465 44.6223 7.22399C44.6223 6.80399 44.5057 6.44932 44.2723 6.15999C44.0483 5.87065 43.7217 5.65132 43.2923 5.50199C42.863 5.35265 42.3497 5.27799 41.7523 5.27799H41.4863V4.35399H41.7243C42.3123 4.35399 42.8537 4.41932 43.3483 4.54999C43.843 4.68065 44.2723 4.87199 44.6363 5.12399C45.0097 5.37599 45.2943 5.68399 45.4903 6.04799C45.6957 6.41199 45.7983 6.83199 45.7983 7.30799C45.7983 7.88665 45.6537 8.39532 45.3643 8.83399C45.0843 9.26332 44.7017 9.59932 44.2163 9.84199C43.731 10.0753 43.1943 10.192 42.6063 10.192ZM41.4863 5.17999V4.26999H41.7523C42.555 4.26999 43.1897 4.13465 43.6563 3.86399C44.1323 3.58399 44.3703 3.18732 44.3703 2.67399C44.3703 2.39399 44.2957 2.13732 44.1463 1.90399C43.997 1.66132 43.7777 1.46999 43.4883 1.32999C43.2083 1.18065 42.8817 1.10599 42.5083 1.10599C42.2563 1.10599 42.0183 1.14332 41.7943 1.21799C41.5797 1.28332 41.379 1.38599 41.1923 1.52599C41.015 1.65665 40.8517 1.82465 40.7023 2.02999L39.7783 1.49799C39.9557 1.20865 40.1797 0.956653 40.4503 0.741986C40.7303 0.527319 41.0477 0.359319 41.4023 0.237986C41.757 0.116653 42.1443 0.0559866 42.5643 0.0559866C43.1337 0.0559866 43.6423 0.167987 44.0903 0.391986C44.5477 0.615986 44.907 0.923986 45.1683 1.31599C45.4297 1.69865 45.5603 2.13265 45.5603 2.61799C45.5603 3.02865 45.4623 3.39265 45.2663 3.70999C45.0703 4.02732 44.795 4.29799 44.4403 4.52199C44.095 4.74599 43.689 4.91399 43.2223 5.02599C42.765 5.12865 42.2657 5.17999 41.7243 5.17999H41.4863ZM51.2166 10.024V0.223986H54.1986C55.1226 0.223986 55.9346 0.433986 56.6346 0.853986C57.3439 1.26465 57.8992 1.83865 58.3006 2.57599C58.7019 3.31332 58.9026 4.16265 58.9026 5.12399C58.9026 6.07599 58.7019 6.92065 58.3006 7.65799C57.8992 8.39532 57.3439 8.97399 56.6346 9.39399C55.9346 9.81399 55.1226 10.024 54.1986 10.024H51.2166ZM52.4066 8.93199H54.1986C54.6932 8.93199 55.1506 8.83865 55.5706 8.65199C55.9906 8.45599 56.3592 8.18065 56.6766 7.82599C57.0032 7.47132 57.2552 7.06532 57.4326 6.60799C57.6192 6.14132 57.7126 5.64665 57.7126 5.12399C57.7126 4.60132 57.6192 4.11132 57.4326 3.65399C57.2552 3.18732 57.0032 2.77665 56.6766 2.42199C56.3592 2.06732 55.9906 1.79665 55.5706 1.60999C55.1506 1.41399 54.6932 1.31599 54.1986 1.31599H52.4066V8.93199ZM63.5992 10.192C62.9179 10.192 62.3159 10.038 61.7932 9.72999C61.2706 9.41265 60.8599 8.97865 60.5612 8.42799C60.2719 7.87732 60.1272 7.24265 60.1272 6.52399C60.1272 5.80532 60.2719 5.17065 60.5612 4.61999C60.8599 4.06932 61.2659 3.63999 61.7792 3.33199C62.3019 3.01465 62.8992 2.85599 63.5712 2.85599C64.2246 2.85599 64.7892 3.01932 65.2652 3.34599C65.7412 3.66332 66.1099 4.11132 66.3712 4.68999C66.6326 5.26865 66.7632 5.94999 66.7632 6.73399H60.9812L61.2612 6.49599C61.2612 7.05599 61.3592 7.53665 61.5552 7.93799C61.7606 8.33932 62.0452 8.64732 62.4092 8.86199C62.7732 9.06732 63.1886 9.16999 63.6552 9.16999C64.1499 9.16999 64.5652 9.05332 64.9012 8.81999C65.2466 8.58665 65.5126 8.27865 65.6992 7.89599L66.6652 8.38599C66.4879 8.74999 66.2499 9.06732 65.9512 9.33799C65.6619 9.60865 65.3166 9.81865 64.9152 9.96799C64.5232 10.1173 64.0846 10.192 63.5992 10.192ZM61.3312 6.01999L61.0372 5.79599H65.8672L65.5732 6.03399C65.5732 5.58599 65.4846 5.19865 65.3072 4.87199C65.1299 4.54532 64.8919 4.29332 64.5932 4.11599C64.2946 3.93865 63.9492 3.84999 63.5572 3.84999C63.1746 3.84999 62.8106 3.93865 62.4652 4.11599C62.1292 4.29332 61.8539 4.54532 61.6392 4.87199C61.4339 5.18932 61.3312 5.57199 61.3312 6.01999ZM70.1401 10.024L72.9961 3.02399H74.1721L71.2461 10.024H70.1401ZM70.0701 10.024L67.1441 3.02399H68.3061L71.1621 10.024H70.0701ZM78.1734 10.192C77.4921 10.192 76.8901 10.038 76.3674 9.72999C75.8448 9.41265 75.4341 8.97865 75.1354 8.42799C74.8461 7.87732 74.7014 7.24265 74.7014 6.52399C74.7014 5.80532 74.8461 5.17065 75.1354 4.61999C75.4341 4.06932 75.8401 3.63999 76.3534 3.33199C76.8761 3.01465 77.4734 2.85599 78.1454 2.85599C78.7988 2.85599 79.3634 3.01932 79.8394 3.34599C80.3154 3.66332 80.6841 4.11132 80.9454 4.68999C81.2068 5.26865 81.3374 5.94999 81.3374 6.73399H75.5554L75.8354 6.49599C75.8354 7.05599 75.9334 7.53665 76.1294 7.93799C76.3348 8.33932 76.6194 8.64732 76.9834 8.86199C77.3474 9.06732 77.7628 9.16999 78.2294 9.16999C78.7241 9.16999 79.1394 9.05332 79.4754 8.81999C79.8208 8.58665 80.0868 8.27865 80.2734 7.89599L81.2394 8.38599C81.0621 8.74999 80.8241 9.06732 80.5254 9.33799C80.2361 9.60865 79.8908 9.81865 79.4894 9.96799C79.0974 10.1173 78.6588 10.192 78.1734 10.192ZM75.9054 6.01999L75.6114 5.79599H80.4414L80.1474 6.03399C80.1474 5.58599 80.0588 5.19865 79.8814 4.87199C79.7041 4.54532 79.4661 4.29332 79.1674 4.11599C78.8688 3.93865 78.5234 3.84999 78.1314 3.84999C77.7488 3.84999 77.3848 3.93865 77.0394 4.11599C76.7034 4.29332 76.4281 4.54532 76.2134 4.87199C76.0081 5.18932 75.9054 5.57199 75.9054 6.01999ZM82.75 10.024V0.223986H83.87V10.024H82.75ZM88.9202 10.192C88.2389 10.192 87.6322 10.038 87.1002 9.72999C86.5775 9.41265 86.1669 8.97865 85.8682 8.42799C85.5695 7.87732 85.4202 7.24265 85.4202 6.52399C85.4202 5.80532 85.5649 5.17065 85.8542 4.61999C86.1529 4.06932 86.5635 3.63999 87.0862 3.33199C87.6182 3.01465 88.2202 2.85599 88.8922 2.85599C89.5829 2.85599 90.1895 3.01465 90.7122 3.33199C91.2442 3.63999 91.6549 4.06932 91.9442 4.61999C92.2429 5.17065 92.3922 5.80532 92.3922 6.52399C92.3922 7.24265 92.2429 7.87732 91.9442 8.42799C91.6549 8.97865 91.2489 9.41265 90.7262 9.72999C90.2035 10.038 89.6015 10.192 88.9202 10.192ZM88.9202 9.15599C89.3869 9.15599 89.7929 9.04399 90.1382 8.81999C90.4835 8.59599 90.7542 8.28799 90.9502 7.89599C91.1555 7.50399 91.2582 7.04665 91.2582 6.52399C91.2582 6.00132 91.1555 5.54399 90.9502 5.15199C90.7542 4.75999 90.4789 4.45199 90.1242 4.22799C89.7695 4.00399 89.3589 3.89199 88.8922 3.89199C88.4349 3.89199 88.0289 4.00399 87.6742 4.22799C87.3289 4.45199 87.0535 4.75999 86.8482 5.15199C86.6522 5.54399 86.5542 6.00132 86.5542 6.52399C86.5542 7.03732 86.6522 7.49465 86.8482 7.89599C87.0535 8.28799 87.3335 8.59599 87.6882 8.81999C88.0522 9.04399 88.4629 9.15599 88.9202 9.15599ZM94.0173 12.824V3.02399H95.0673L95.1373 4.31199V12.824H94.0173ZM97.5033 10.192C96.9153 10.192 96.3973 10.038 95.9493 9.72999C95.5106 9.42199 95.17 8.99265 94.9273 8.44199C94.6846 7.88199 94.5633 7.24265 94.5633 6.52399C94.5633 5.79599 94.6846 5.15665 94.9273 4.60599C95.17 4.05532 95.5106 3.62599 95.9493 3.31799C96.3973 3.00999 96.9153 2.85599 97.5033 2.85599C98.1286 2.85599 98.6793 3.00999 99.1553 3.31799C99.6313 3.62599 100 4.05532 100.261 4.60599C100.532 5.15665 100.667 5.79599 100.667 6.52399C100.667 7.24265 100.532 7.88199 100.261 8.44199C100 8.99265 99.6313 9.42199 99.1553 9.72999C98.6793 10.038 98.1286 10.192 97.5033 10.192ZM97.2513 9.16999C97.69 9.16999 98.0773 9.05799 98.4133 8.83399C98.7586 8.60999 99.0293 8.29732 99.2253 7.89599C99.4306 7.49465 99.5333 7.03732 99.5333 6.52399C99.5333 6.01065 99.4353 5.55332 99.2393 5.15199C99.0526 4.75065 98.7866 4.43799 98.4413 4.21399C98.096 3.98999 97.704 3.87799 97.2653 3.87799C96.8546 3.87799 96.486 3.98999 96.1593 4.21399C95.842 4.43799 95.59 4.75065 95.4033 5.15199C95.226 5.55332 95.1373 6.01065 95.1373 6.52399C95.1373 7.03732 95.226 7.49465 95.4033 7.89599C95.59 8.29732 95.842 8.60999 96.1593 8.83399C96.4766 9.05799 96.8406 9.16999 97.2513 9.16999ZM105.285 10.192C104.603 10.192 104.001 10.038 103.479 9.72999C102.956 9.41265 102.545 8.97865 102.247 8.42799C101.957 7.87732 101.813 7.24265 101.813 6.52399C101.813 5.80532 101.957 5.17065 102.247 4.61999C102.545 4.06932 102.951 3.63999 103.465 3.33199C103.987 3.01465 104.585 2.85599 105.257 2.85599C105.91 2.85599 106.475 3.01932 106.951 3.34599C107.427 3.66332 107.795 4.11132 108.057 4.68999C108.318 5.26865 108.449 5.94999 108.449 6.73399H102.667L102.947 6.49599C102.947 7.05599 103.045 7.53665 103.241 7.93799C103.446 8.33932 103.731 8.64732 104.095 8.86199C104.459 9.06732 104.874 9.16999 105.341 9.16999C105.835 9.16999 106.251 9.05332 106.587 8.81999C106.932 8.58665 107.198 8.27865 107.385 7.89599L108.351 8.38599C108.173 8.74999 107.935 9.06732 107.637 9.33799C107.347 9.60865 107.002 9.81865 106.601 9.96799C106.209 10.1173 105.77 10.192 105.285 10.192ZM103.017 6.01999L102.723 5.79599H107.553L107.259 6.03399C107.259 5.58599 107.17 5.19865 106.993 4.87199C106.815 4.54532 106.577 4.29332 106.279 4.11599C105.98 3.93865 105.635 3.84999 105.243 3.84999C104.86 3.84999 104.496 3.93865 104.151 4.11599C103.815 4.29332 103.539 4.54532 103.325 4.87199C103.119 5.18932 103.017 5.57199 103.017 6.01999ZM110.477 6.22999C110.477 5.47399 110.622 4.86265 110.911 4.39599C111.201 3.91999 111.569 3.56999 112.017 3.34599C112.475 3.11265 112.955 2.99599 113.459 2.99599V4.04599C113.049 4.04599 112.652 4.11599 112.269 4.25599C111.896 4.38665 111.588 4.60599 111.345 4.91399C111.103 5.22199 110.981 5.64199 110.981 6.17399L110.477 6.22999ZM109.861 10.024V3.02399H110.981V10.024H109.861ZM125.163 10.024L121.229 0.223986H122.419L126.409 10.024H125.163ZM117.197 10.024L121.187 0.223986H122.391L118.457 10.024H117.197ZM119.087 7.23799V6.17399H124.533V7.23799H119.087ZM128.617 7.76999L127.903 6.99999L131.627 3.02399H133.041L128.617 7.76999ZM127.525 10.024V0.223986H128.645V10.024H127.525ZM131.935 10.024L129.275 6.00599L130.003 5.22199L133.321 10.024H131.935ZM138.482 10.024L138.426 8.87599V6.32799C138.426 5.77732 138.365 5.32465 138.244 4.96999C138.123 4.60599 137.931 4.33065 137.67 4.14399C137.409 3.95732 137.068 3.86399 136.648 3.86399C136.265 3.86399 135.934 3.94332 135.654 4.10199C135.383 4.25132 135.159 4.49399 134.982 4.82999L133.974 4.43799C134.151 4.11132 134.366 3.83132 134.618 3.59799C134.87 3.35532 135.164 3.17332 135.5 3.05199C135.836 2.92132 136.219 2.85599 136.648 2.85599C137.301 2.85599 137.838 2.98665 138.258 3.24799C138.687 3.49999 139.009 3.87799 139.224 4.38199C139.439 4.87665 139.541 5.49265 139.532 6.22999L139.518 10.024H138.482ZM136.382 10.192C135.561 10.192 134.917 10.0053 134.45 9.63199C133.993 9.24932 133.764 8.72199 133.764 8.04999C133.764 7.34065 133.997 6.79932 134.464 6.42599C134.94 6.04332 135.603 5.85199 136.452 5.85199H138.454V6.78999H136.704C136.051 6.78999 135.584 6.89732 135.304 7.11199C135.033 7.32665 134.898 7.63465 134.898 8.03599C134.898 8.39999 135.033 8.68932 135.304 8.90399C135.575 9.10932 135.953 9.21199 136.438 9.21199C136.839 9.21199 137.189 9.12799 137.488 8.95999C137.787 8.78265 138.015 8.53532 138.174 8.21799C138.342 7.89132 138.426 7.50865 138.426 7.06999H138.902C138.902 8.02199 138.687 8.78265 138.258 9.35199C137.829 9.91199 137.203 10.192 136.382 10.192ZM146.487 10.024L146.431 8.72199V0.223986H147.551V10.024H146.487ZM144.065 10.192C143.439 10.192 142.889 10.038 142.413 9.72999C141.937 9.42199 141.563 8.99265 141.293 8.44199C141.031 7.88199 140.901 7.24265 140.901 6.52399C140.901 5.79599 141.031 5.15665 141.293 4.60599C141.563 4.05532 141.937 3.62599 142.413 3.31799C142.889 3.00999 143.439 2.85599 144.065 2.85599C144.653 2.85599 145.166 3.00999 145.605 3.31799C146.053 3.62599 146.398 4.05532 146.641 4.60599C146.883 5.15665 147.005 5.79599 147.005 6.52399C147.005 7.24265 146.883 7.88199 146.641 8.44199C146.398 8.99265 146.053 9.42199 145.605 9.72999C145.166 10.038 144.653 10.192 144.065 10.192ZM144.317 9.16999C144.727 9.16999 145.091 9.05799 145.409 8.83399C145.726 8.60999 145.973 8.29732 146.151 7.89599C146.337 7.49465 146.431 7.03732 146.431 6.52399C146.431 6.01065 146.337 5.55332 146.151 5.15199C145.973 4.75065 145.726 4.43799 145.409 4.21399C145.091 3.98999 144.723 3.87799 144.303 3.87799C143.864 3.87799 143.472 3.98999 143.127 4.21399C142.791 4.43799 142.525 4.75065 142.329 5.15199C142.133 5.55332 142.035 6.01065 142.035 6.52399C142.035 7.03732 142.133 7.49465 142.329 7.89599C142.525 8.29732 142.795 8.60999 143.141 8.83399C143.486 9.05799 143.878 9.16999 144.317 9.16999ZM152.576 10.192C151.894 10.192 151.292 10.038 150.77 9.72999C150.247 9.41265 149.836 8.97865 149.538 8.42799C149.248 7.87732 149.104 7.24265 149.104 6.52399C149.104 5.80532 149.248 5.17065 149.538 4.61999C149.836 4.06932 150.242 3.63999 150.756 3.33199C151.278 3.01465 151.876 2.85599 152.548 2.85599C153.201 2.85599 153.766 3.01932 154.242 3.34599C154.718 3.66332 155.086 4.11132 155.348 4.68999C155.609 5.26865 155.74 5.94999 155.74 6.73399H149.958L150.238 6.49599C150.238 7.05599 150.336 7.53665 150.532 7.93799C150.737 8.33932 151.022 8.64732 151.386 8.86199C151.75 9.06732 152.165 9.16999 152.632 9.16999C153.126 9.16999 153.542 9.05332 153.878 8.81999C154.223 8.58665 154.489 8.27865 154.676 7.89599L155.642 8.38599C155.464 8.74999 155.226 9.06732 154.928 9.33799C154.638 9.60865 154.293 9.81865 153.892 9.96799C153.5 10.1173 153.061 10.192 152.576 10.192ZM150.308 6.01999L150.014 5.79599H154.844L154.55 6.03399C154.55 5.58599 154.461 5.19865 154.284 4.87199C154.106 4.54532 153.868 4.29332 153.57 4.11599C153.271 3.93865 152.926 3.84999 152.534 3.84999C152.151 3.84999 151.787 3.93865 151.442 4.11599C151.106 4.29332 150.83 4.54532 150.616 4.87199C150.41 5.18932 150.308 5.57199 150.308 6.01999ZM157.152 10.024V3.02399H158.202L158.258 4.00399C158.473 3.63065 158.748 3.34599 159.084 3.14999C159.42 2.95399 159.812 2.85599 160.26 2.85599C160.82 2.85599 161.296 2.98665 161.688 3.24799C162.09 3.50932 162.379 3.90599 162.556 4.43799C162.752 3.92465 163.037 3.53265 163.41 3.26199C163.793 2.99132 164.246 2.85599 164.768 2.85599C165.552 2.85599 166.168 3.11732 166.616 3.63999C167.074 4.16265 167.298 4.95599 167.288 6.01999V10.024H166.168V6.43999C166.168 5.74932 166.094 5.22199 165.944 4.85799C165.804 4.49399 165.613 4.24665 165.37 4.11599C165.128 3.97599 164.848 3.90599 164.53 3.90599C163.98 3.90599 163.55 4.12532 163.242 4.56399C162.934 4.99332 162.78 5.60465 162.78 6.39799V10.024H161.66V6.43999C161.66 5.74932 161.586 5.22199 161.436 4.85799C161.296 4.49399 161.1 4.24665 160.848 4.11599C160.606 3.97599 160.326 3.90599 160.008 3.90599C159.467 3.90599 159.042 4.12532 158.734 4.56399C158.426 4.99332 158.272 5.60465 158.272 6.39799V10.024H157.152ZM169.131 10.024V3.02399H170.251V10.024H169.131ZM169.705 1.39999C169.518 1.39999 169.355 1.32999 169.215 1.18999C169.075 1.04999 169.005 0.886653 169.005 0.699987C169.005 0.503986 169.075 0.340653 169.215 0.209986C169.355 0.0699865 169.518 -1.34706e-05 169.705 -1.34706e-05C169.901 -1.34706e-05 170.064 0.0699865 170.195 0.209986C170.335 0.340653 170.405 0.503986 170.405 0.699987C170.405 0.886653 170.335 1.04999 170.195 1.18999C170.064 1.32999 169.901 1.39999 169.705 1.39999ZM175.38 10.192C174.699 10.192 174.097 10.038 173.574 9.72999C173.052 9.41265 172.641 8.97865 172.342 8.42799C172.053 7.87732 171.908 7.24265 171.908 6.52399C171.908 5.80532 172.053 5.17065 172.342 4.61999C172.641 4.06932 173.047 3.63999 173.56 3.33199C174.083 3.01465 174.68 2.85599 175.352 2.85599C176.006 2.85599 176.57 3.01932 177.046 3.34599C177.522 3.66332 177.891 4.11132 178.152 4.68999C178.414 5.26865 178.544 5.94999 178.544 6.73399H172.762L173.042 6.49599C173.042 7.05599 173.14 7.53665 173.336 7.93799C173.542 8.33932 173.826 8.64732 174.19 8.86199C174.554 9.06732 174.97 9.16999 175.436 9.16999C175.931 9.16999 176.346 9.05332 176.682 8.81999C177.028 8.58665 177.294 8.27865 177.48 7.89599L178.446 8.38599C178.269 8.74999 178.031 9.06732 177.732 9.33799C177.443 9.60865 177.098 9.81865 176.696 9.96799C176.304 10.1173 175.866 10.192 175.38 10.192ZM173.112 6.01999L172.818 5.79599H177.648L177.354 6.03399C177.354 5.58599 177.266 5.19865 177.088 4.87199C176.911 4.54532 176.673 4.29332 176.374 4.11599C176.076 3.93865 175.73 3.84999 175.338 3.84999C174.956 3.84999 174.592 3.93865 174.246 4.11599C173.91 4.29332 173.635 4.54532 173.42 4.87199C173.215 5.18932 173.112 5.57199 173.112 6.01999ZM188.176 10.192C187.177 10.192 186.295 9.97732 185.53 9.54799C184.765 9.10932 184.163 8.51199 183.724 7.75599C183.295 6.99065 183.08 6.11799 183.08 5.13799C183.08 4.13932 183.295 3.26199 183.724 2.50599C184.163 1.74065 184.765 1.14332 185.53 0.713987C186.295 0.27532 187.177 0.0559866 188.176 0.0559866C188.699 0.0559866 189.207 0.144653 189.702 0.321987C190.197 0.489987 190.649 0.72332 191.06 1.02199C191.471 1.32065 191.802 1.66132 192.054 2.04399L191.116 2.68799C190.929 2.38932 190.677 2.12332 190.36 1.88999C190.043 1.64732 189.693 1.46065 189.31 1.32999C188.937 1.19932 188.559 1.13399 188.176 1.13399C187.42 1.13399 186.748 1.30665 186.16 1.65199C185.572 1.98799 185.11 2.45465 184.774 3.05199C184.438 3.64932 184.27 4.34465 184.27 5.13799C184.27 5.90332 184.433 6.58932 184.76 7.19599C185.096 7.79332 185.558 8.26465 186.146 8.60999C186.743 8.95532 187.42 9.12799 188.176 9.12799C188.811 9.12799 189.371 8.99732 189.856 8.73599C190.351 8.46532 190.738 8.09665 191.018 7.62999C191.298 7.15399 191.438 6.60799 191.438 5.99199L192.572 5.90799C192.572 6.76665 192.385 7.51799 192.012 8.16199C191.639 8.79665 191.121 9.29599 190.458 9.65999C189.795 10.0147 189.035 10.192 188.176 10.192ZM189.03 6.04799V5.02599H192.572V5.94999L192.012 6.04799H189.03ZM194.053 10.024V3.02399H195.103L195.159 4.00399C195.373 3.63065 195.649 3.34599 195.985 3.14999C196.321 2.95399 196.713 2.85599 197.161 2.85599C197.721 2.85599 198.197 2.98665 198.589 3.24799C198.99 3.50932 199.279 3.90599 199.457 4.43799C199.653 3.92465 199.937 3.53265 200.311 3.26199C200.693 2.99132 201.146 2.85599 201.669 2.85599C202.453 2.85599 203.069 3.11732 203.517 3.63999C203.974 4.16265 204.198 4.95599 204.189 6.01999V10.024H203.069V6.43999C203.069 5.74932 202.994 5.22199 202.845 4.85799C202.705 4.49399 202.513 4.24665 202.271 4.11599C202.028 3.97599 201.748 3.90599 201.431 3.90599C200.88 3.90599 200.451 4.12532 200.143 4.56399C199.835 4.99332 199.681 5.60465 199.681 6.39799V10.024H198.561V6.43999C198.561 5.74932 198.486 5.22199 198.337 4.85799C198.197 4.49399 198.001 4.24665 197.749 4.11599C197.506 3.97599 197.226 3.90599 196.909 3.90599C196.367 3.90599 195.943 4.12532 195.635 4.56399C195.327 4.99332 195.173 5.60465 195.173 6.39799V10.024H194.053ZM205.961 10.024V0.223986H207.081V8.72199L207.025 10.024H205.961ZM209.447 10.192C208.859 10.192 208.341 10.038 207.893 9.72999C207.454 9.42199 207.114 8.99265 206.871 8.44199C206.628 7.88199 206.507 7.24265 206.507 6.52399C206.507 5.79599 206.628 5.15665 206.871 4.60599C207.114 4.05532 207.454 3.62599 207.893 3.31799C208.341 3.00999 208.859 2.85599 209.447 2.85599C210.072 2.85599 210.623 3.00999 211.099 3.31799C211.575 3.62599 211.944 4.05532 212.205 4.60599C212.476 5.15665 212.611 5.79599 212.611 6.52399C212.611 7.24265 212.476 7.88199 212.205 8.44199C211.944 8.99265 211.575 9.42199 211.099 9.72999C210.623 10.038 210.072 10.192 209.447 10.192ZM209.195 9.16999C209.634 9.16999 210.021 9.05799 210.357 8.83399C210.702 8.60999 210.973 8.29732 211.169 7.89599C211.374 7.49465 211.477 7.03732 211.477 6.52399C211.477 6.01065 211.379 5.55332 211.183 5.15199C210.996 4.75065 210.73 4.43799 210.385 4.21399C210.04 3.98999 209.648 3.87799 209.209 3.87799C208.798 3.87799 208.43 3.98999 208.103 4.21399C207.786 4.43799 207.534 4.75065 207.347 5.15199C207.17 5.55332 207.081 6.01065 207.081 6.52399C207.081 7.03732 207.17 7.49465 207.347 7.89599C207.534 8.29732 207.786 8.60999 208.103 8.83399C208.42 9.05799 208.784 9.16999 209.195 9.16999ZM221.22 10.024V0.223986H222.396V10.024H221.22ZM214.486 10.024V0.223986H215.676V10.024H214.486ZM215.536 5.51599V4.43799H221.472V5.51599H215.536Z" fill="#99ACB3"/>
</svg>
